<?xml version="1.0" encoding="UTF-8" standalone="no"?>
<svg width="20px" height="20px" viewBox="0 0 20 20" version="1.1" xmlns="http://www.w3.org/2000/svg" xmlns:xlink="http://www.w3.org/1999/xlink" xmlns:sketch="http://www.bohemiancoding.com/sketch/ns">
    <!-- Generator: Sketch 3.2.2 (9983) - http://www.bohemiancoding.com/sketch -->
    <title>adjust</title>
    <desc>Created with Sketch.</desc>
    <defs></defs>
    <g id="Page-1" stroke="none" stroke-width="1" fill="none" fill-rule="evenodd" sketch:type="MSPage">
        <g id="Desktop-HD" sketch:type="MSArtboardGroup" transform="translate(-81.000000, -1000.000000)" fill="#BDC3C7">
            <path d="M100,1009.199 L99.02,1009.199 C98.467,1009.199 98.02,1009.558 98.02,1010 C98.02,1010.441 98.467,1010.799 99.02,1010.799 L100,1010.799 C100.552,1010.799 101,1010.442 101,1010 C101,1009.559 100.551,1009.199 100,1009.199 L100,1009.199 Z M91,1004.5 C87.949,1004.5 85.5,1006.949 85.5,1010 C85.5,1013.051 87.949,1015.5 91,1015.5 C94.05,1015.5 96.5,1013.051 96.5,1010 C96.5,1006.949 94.049,1004.5 91,1004.5 L91,1004.5 Z M91,1014 C88.789,1014 87,1012.209 87,1010 C87,1007.789 88.789,1006 91,1006 L91,1014 L91,1014 Z M84,1010 C84,1009.559 83.551,1009.199 83,1009.199 L82,1009.199 C81.447,1009.199 81,1009.558 81,1010 C81,1010.441 81.447,1010.799 82,1010.799 L83,1010.799 C83.551,1010.799 84,1010.441 84,1010 L84,1010 Z M91,1003 C91.441,1003 91.799,1002.553 91.799,1002 L91.799,1001 C91.799,1000.447 91.441,1000 91,1000 C90.558,1000 90.199,1000.447 90.199,1001 L90.199,1002 C90.199,1002.553 90.558,1003 91,1003 L91,1003 Z M91,1017 C90.558,1017 90.199,1017.447 90.199,1018 L90.199,1019 C90.199,1019.553 90.558,1020 91,1020 C91.441,1020 91.799,1019.553 91.799,1019 L91.799,1018 C91.799,1017.447 91.441,1017 91,1017 L91,1017 Z M98.365,1003.766 C98.756,1003.375 98.819,1002.805 98.507,1002.493 C98.195,1002.181 97.624,1002.245 97.235,1002.636 C97.127,1002.743 96.642,1003.228 96.535,1003.335 C96.144,1003.726 96.081,1004.296 96.393,1004.608 C96.705,1004.92 97.276,1004.856 97.666,1004.465 C97.773,1004.357 98.257,1003.873 98.365,1003.766 L98.365,1003.766 Z M84.334,1015.533 C84.226,1015.642 83.741,1016.127 83.634,1016.234 C83.243,1016.625 83.18,1017.193 83.492,1017.505 C83.804,1017.817 84.375,1017.755 84.764,1017.364 C84.872,1017.257 85.357,1016.772 85.464,1016.665 C85.855,1016.274 85.918,1015.704 85.606,1015.391 C85.294,1015.078 84.723,1015.144 84.334,1015.533 L84.334,1015.533 Z M84.765,1002.635 C84.375,1002.244 83.804,1002.18 83.492,1002.492 C83.18,1002.804 83.244,1003.375 83.633,1003.766 C83.741,1003.873 84.226,1004.358 84.333,1004.465 C84.724,1004.856 85.293,1004.92 85.605,1004.608 C85.917,1004.296 85.854,1003.725 85.464,1003.335 C85.357,1003.227 84.873,1002.742 84.765,1002.635 L84.765,1002.635 Z M96.534,1016.666 C96.642,1016.773 97.127,1017.258 97.234,1017.365 C97.625,1017.756 98.194,1017.818 98.506,1017.508 C98.818,1017.196 98.755,1016.625 98.364,1016.235 C98.257,1016.128 97.772,1015.643 97.665,1015.536 C97.274,1015.145 96.704,1015.081 96.391,1015.393 C96.078,1015.705 96.143,1016.275 96.534,1016.666 L96.534,1016.666 Z" id="adjust" sketch:type="MSShapeGroup"></path>
        </g>
    </g>
</svg>