<?xml version="1.0" encoding="UTF-8" standalone="no"?>
<svg width="29px" height="37px" viewBox="0 0 29 37" version="1.1" xmlns="http://www.w3.org/2000/svg" xmlns:xlink="http://www.w3.org/1999/xlink" xmlns:sketch="http://www.bohemiancoding.com/sketch/ns">
    <!-- Generator: Sketch 3.2.2 (9983) - http://www.bohemiancoding.com/sketch -->
    <title>monogram</title>
    <desc>Created with Sketch.</desc>
    <defs></defs>
    <g id="Page-1" stroke="none" stroke-width="1" fill="none" fill-rule="evenodd" sketch:type="MSPage">
        <g id="Desktop-HD" sketch:type="MSArtboardGroup" transform="translate(-81.000000, -72.000000)" fill="#2B3232">
            <g id="monogram" sketch:type="MSLayerGroup" transform="translate(81.000000, 71.442383)">
                <path d="M10.872,23.526 C10.677,23.526 10.479,23.47 10.306,23.351 C7.93,21.715 6.512,19.019 6.512,16.138 C6.512,11.313 10.437,7.388 15.262,7.388 C18.636,7.388 21.745,9.361 23.183,12.415 C23.417,12.915 23.203,13.511 22.703,13.746 C22.2,13.982 21.607,13.767 21.372,13.267 C20.264,10.911 17.865,9.388 15.262,9.388 C11.54,9.388 8.512,12.415 8.512,16.138 C8.512,18.36 9.606,20.44 11.44,21.703 C11.895,22.016 12.01,22.639 11.697,23.094 C11.503,23.375 11.19,23.526 10.872,23.526" id="Fill-1" sketch:type="MSShapeGroup"></path>
                <path d="M21.012,28.197 L10.387,28.197 C9.981,28.197 9.615,27.952 9.461,27.576 C9.308,27.2 9.396,26.769 9.685,26.484 L19.318,17.013 L10.512,17.013 C9.96,17.013 9.512,16.565 9.512,16.013 C9.512,15.46 9.96,15.013 10.512,15.013 L21.762,15.013 C22.168,15.013 22.533,15.258 22.688,15.634 C22.841,16.01 22.752,16.441 22.463,16.726 L12.83,26.197 L21.012,26.197 C21.565,26.197 22.012,26.645 22.012,27.197 C22.012,27.75 21.565,28.197 21.012,28.197" id="Fill-2" sketch:type="MSShapeGroup"></path>
                <path d="M14.879,36.604 L14.809,36.604 C11.045,36.587 7.513,35.103 4.863,32.429 C2.214,29.754 0.765,26.208 0.783,22.443 L0.819,15.006 C0.856,7.272 7.178,0.981 14.911,0.981 C18.744,0.999 22.276,2.481 24.926,5.156 C27.575,7.831 29.024,11.377 29.006,15.142 L28.971,22.579 C28.933,30.313 22.611,36.604 14.879,36.604 L14.879,36.604 Z M14.97,2.98 C8.275,2.98 2.851,8.379 2.819,15.016 L2.783,22.453 C2.768,25.684 4.011,28.727 6.284,31.022 C8.558,33.316 11.588,34.589 14.819,34.605 L14.879,35.605 L14.879,34.605 C21.514,34.605 26.939,29.206 26.971,22.569 L27.006,15.132 C27.022,11.902 25.778,8.859 23.505,6.564 C21.231,4.269 18.2,2.996 14.97,2.98 L14.97,2.98 Z" id="Fill-3" sketch:type="MSShapeGroup"></path>
            </g>
        </g>
    </g>
</svg>