<?xml version="1.0" encoding="UTF-8" standalone="no"?>
<svg width="70px" height="70px" viewBox="0 0 70 70" version="1.1" xmlns="http://www.w3.org/2000/svg" xmlns:xlink="http://www.w3.org/1999/xlink" xmlns:sketch="http://www.bohemiancoding.com/sketch/ns">
    <!-- Generator: Sketch 3.2.2 (9983) - http://www.bohemiancoding.com/sketch -->
    <title>zoom</title>
    <desc>Created with Sketch.</desc>
    <defs></defs>
    <g id="Page-1" stroke="none" stroke-width="1" fill="none" fill-rule="evenodd" sketch:type="MSPage">
        <g id="Desktop" sketch:type="MSArtboardGroup" transform="translate(-1209.000000, -731.000000)" fill="#393D47">
            <path d="M1252.75011,730.999816 C1238.24776,730.999816 1226.50005,742.747532 1226.50005,757.249885 C1226.50005,762.435084 1227.95838,767.215189 1230.55098,771.266126 L1210.70139,791.034696 C1208.43287,793.303221 1208.43287,797.030082 1210.70139,799.298607 C1211.83566,800.432869 1213.29399,801 1214.83335,801 C1216.29169,801 1217.83104,800.432869 1218.9653,799.298607 L1238.73387,779.449018 C1242.78481,782.041617 1247.56492,783.499954 1252.75011,783.499954 C1267.25247,783.499954 1279.00018,771.752238 1279.00018,757.249885 C1279.00018,742.747532 1267.25247,730.999816 1252.75011,730.999816 L1252.75011,730.999816 Z M1267.33349,761.624897 L1257.12513,761.624897 L1257.12513,771.833257 L1248.3751,771.833257 L1248.3751,761.624897 L1238.16674,761.624897 L1238.16674,752.874874 L1248.3751,752.874874 L1248.3751,742.666514 L1257.12513,742.666514 L1257.12513,752.874874 L1267.33349,752.874874 L1267.33349,761.624897 Z" id="zoom" sketch:type="MSShapeGroup"></path>
        </g>
    </g>
</svg>