<svg xmlns="http://www.w3.org/2000/svg"><defs><font><font-face font-family="SS Social" units-per-em="2048" ascent="2176" descent="-640"/><glyph horiz-adv-x="2048"/><glyph unicode="✉" horiz-adv-x="2048" d="M2048 1664L1024 896 0 1664q0 53 37.5 90.5T128 1792h1792q53 0 90.5-37.5t37.5-90.5zM0 1434l1024-768 1024 768V384q0-53-37.5-90.5T1920 256H128q-53 0-90.5 37.5T0 384v1050z"/><glyph unicode="" horiz-adv-x="2048" d="M43 2048q273 0 532.5-72t479.5-201.5 405-314.5 314.5-405T1976 575.5 2048 43q0-18-12.5-30.5T2005 0h-298q-18 0-30.5 12.5T1664 43q0 221-58 431t-162.5 388-254 327.5-327.5 254T474 1606t-431 58q-18 0-30.5 12.5T0 1707v298q0 18 12.5 30.5T43 2048zm0-640q185 0 362-49t327-137 276-214 214-276 137-327 49-362q0-18-12.5-30.5T1365 0h-298q-18 0-30.5 12.5T1024 43q0 200-77.5 381.5t-209 313-313 209T43 1024q-18 0-30.5 12.5T0 1067v298q0 18 12.5 30.5T43 1408zm277-768q131 0 225.5-94.5T640 320q0-133-94-226.5T320 0Q186 0 93 93T0 320q0 132 93.5 226T320 640z"/><glyph unicode="" horiz-adv-x="2048" d="M1664 768q159 0 271.5-112.5T2048 384t-112.5-271.5T1664 0t-271.5 112.5T1280 384v1L615 717q-103-77-231-77-159 0-271.5 112.5T0 1024t112.5 271.5T384 1408q128 0 231-77l665 332v1q0 159 112.5 271.5T1664 2048t271.5-112.5T2048 1664t-112.5-271.5T1664 1280q-128 0-231 77l-667-333 667-333q103 77 231 77z"/><glyph unicode="" horiz-adv-x="2048" d="M1920 2048q52 0 90-38t38-90V128q0-52-38-90t-90-38h-512v796h256l43 295h-299v232q0 64 32.5 98t95.5 34h192v266q-86 14-210 14-206 0-314.5-104.5T1095 1346v-255H839V796h256V0H128Q76 0 38 38T0 128v1792q0 52 38 90t90 38h1792z"/><glyph unicode="" horiz-adv-x="2048" d="M2048 1681q-84-127-209-218v-55q0-140-35.5-281.5t-102-275T1531 602t-233-202.5T1000.5 263 645 213Q266 213 0 384q46-7 100-7 140 0 274 54t247 145q-135 1-243.5 83.5T230 868q42-8 78-8 58 0 112 15-145 29-241 144.5T83 1287v5q90-49 190-52-87 58-137.5 150T85 1588q0 103 57 204 158-192 382-304.5t483-126.5q-9 39-9 97 0 174 122.5 296.5T1417 1877q179 0 309-132 143 29 265 102-48-152-185-233 125 14 242 67z"/><glyph unicode="" horiz-adv-x="2048" d="M512 1771q0-101-71-168t-187-67h-3q-111 0-181 67.5T0 1771q0 101 71.5 167.5T258 2005q113 0 182.5-66.5T512 1771zM43 1323h426V0H43v1323zm1109-555V0H725v1024q-7 254-7 299h420l14-183q68 103 165 164t219 61q230 0 371-157.5T2048 768V0h-427v725q0 152-64.5 225.5T1389 1024q-102 0-169.5-66.5T1152 768z"/><glyph unicode="" horiz-adv-x="2048" d="M2048 1579v-86h-341v-341h-86v341h-341v86h341v341h86v-341h341zM889 882q104-76 145.5-154t41.5-195q0-74-35.5-142.5t-100-123T774 180t-226-33q-149 0-273 37.5T75.5 295 0 462q0 151 154.5 269T526 849h93q-71 69-71 147 0 55 26 101-17-2-50-2-180 0-294 112t-114 277q0 103 66 194.5t174 145 227 53.5h536l-121-87H827q82-31 127.5-116.5T1000 1481q0-163-151-279-63-51-82.5-80.5T747 1048q0-34 47.5-84.5T889 882zm-287 268q103-4 163.5 90t42.5 230q-17 136-103 232t-191 99q-103 4-163.5-88T308 1486q18-136 104.5-234.5T602 1150zm-54-918q204 0 296 76.5T936 512q0 17-4 55-6 21-18.5 41.5t-22 33.5-36.5 34.5-37.5 29.5-50 35.5T716 777q-58 17-133 22-102 0-191.5-37.5T248 659t-54-140q0-119 100.5-203T548 232z"/><glyph unicode="" horiz-adv-x="2048" d="M553 815h942l-471 709zm471 1062L2100 256h-232l-259 384H439L180 256H-52z"/><glyph unicode="" horiz-adv-x="2048" d="M1778 453q25-101 5-184.5t-70-143T1593 33 1447 0q-68 0-140 27.5t-110 52-122 85.5q-18 13-27 19-73 55-123 88t-128 72-167.5 58T438 421q-76 0-166-18-31 106 3 209t154 226q155 163 370 409t351 411q-175-27-326-27-52 0-96.5 6t-89.5 20.5-71 44.5-26 73q0 54 32.5 122t64.5 109l33 42q129-90 489-90 270 0 515 50 9-27 9-81 0-66-38.5-126T1500 1622q-136-154-430-472T663 694q77-9 143-26t125.5-44.5 94-47T1119 520q61-41 94-60.5t90-46.5 118-38.5 133-11.5q66 0 115 18t109 72z"/><glyph unicode="" horiz-adv-x="2048" d="M2091 1088q0-59-27.5-110t-74.5-84q16-60 16-126 0-111-49.5-215.5t-140-188.5T1604 217t-270.5-97.5T1024 85t-309.5 34.5T444 217 232.5 364t-140 188.5T43 768q0 66 16 126-47 33-74.5 84T-43 1088q0 98 68.5 166.5T192 1323q90 0 156-60 133 87 304 136.5t360 51.5l133 400q6 19 23 29t37 6l352-71q24 48 70 76.5t101 28.5q80 0 136-56t56-136-56-136-136-56q-76 0-131 51.5t-60 125.5l-307 62-109-328q335-23 579-184 66 60 156 60 98 0 166.5-68.5T2091 1088zm-747-320q62 0 105.5 44t43.5 105q0 62-43.5 106t-105.5 44-105.5-44-43.5-106q0-61 43.5-105t105.5-44zM555 917q0-61 43.5-105T704 768t105.5 44T853 917q0 62-43.5 106T704 1067t-105.5-44T555 917zm823-464q15 13 17.5 32t-9.5 35q-12 15-31.5 17.5T1319 528q-124-97-295-97t-295 97q-16 12-35.5 9.5T662 520q-12-16-9.5-35t17.5-32q148-116 354-116t354 116z"/><glyph unicode="" horiz-adv-x="2048" d="M1771 1472q115 0 196-81t81-196q0-111-76-191t-185-86l-272-195q-2-88-64-149.5T1301 512q-74 0-132 46.5T1094 675l-775 334q-51-28-106-28-88 0-150.5 62.5T0 1195t62 151 151 62q75 0 133-46t75-117l774-334q53 28 106 28h1l191 256q1 115 82 196t196 81zm0-469q79 0 135.5 56.5T1963 1195t-56.5 135.5T1771 1387t-135.5-56.5T1579 1195t56.5-135.5T1771 1003zm0 341q61 0 105-44t44-105q0-62-43.5-106t-105.5-44-106 44-44 106 44 105.5 106 43.5zm-1424-79q7 5 8 14t-4 16q-51 70-138 70-71 0-120.5-49.5T43 1195t50-121 120-50q10 0 24 2 9 1 14.5 8t3.5 16q-1 8-8 13.5t-16 4.5q-6-1-18-1-53 0-90.5 37.5T85 1195t37.5 90.5T213 1323q65 0 104-53 13-17 30-5zm954-710q71 0 121 49.5t50 120.5-50 121-121 50q-8 0-24-2-8-1-13.5-8t-4.5-16q2-8 9-13.5t15-4.5q6 1 18 1 53 0 90.5-37.5T1429 725t-37.5-90.5T1301 597q-64 0-103 53-13 17-30 5-16-13-5-30 51-70 138-70z"/><glyph unicode="" horiz-adv-x="2048" d="M1024 2048q209 0 398.5-81t326.5-218 218-326.5 81-398.5-81-398.5T1749 299 1422.5 81 1024 0 625.5 81 299 299 81 625.5 0 1024t81 398.5T299 1749t326.5 218 398.5 81zm594-1178q7 23-5.5 45t-35.5 27q-23 7-45-5.5t-27-35.5q-44-164-178-268t-303-104-303 104-178 268q-5 23-26.5 34.5T471 942q-23-5-34.5-26.5T430 870q51-202 217.5-331T1024 410t376.5 129T1618 870z"/><glyph unicode="" horiz-adv-x="2048" d="M1688 604q-185 0-304 117.5T1265 1030q0 178 116 301t294 123q180 0 288.5-123t108.5-316v-44h-623q10-95 78.5-159t177.5-64q63 0 126 24t105 67l81-116q-127-119-329-119zm215 493q-4 83-62.5 147.5T1673 1309q-103 0-161.5-64.5T1447 1097h456zm-734-473H993v528q0 146-134 146-55 0-106.5-32t-80.5-75V624H496v528q0 146-133 146-54 0-105-32t-82-75V624H0v809h176v-108q33 45 107 87t158 42q87 0 143.5-40t77.5-108q37 59 112.5 103.5T936 1454q112 0 172.5-62t60.5-183V624z"/><glyph unicode="" horiz-adv-x="2048" d="M1062 427H942q-126 0-264 59.5T435 651q-137 137-281.5 376.5T-96 1505q-13 30-13 47 0 48 82 48h279q48 0 76-28 9-9 25-45.5t45-99.5 63-121q81-138 130.5-196t81.5-58q68 0 68 208 0 136-10 190t-37 81q-19 19-41.5 26.5t-34.5 9-12 7.5 4.5 15 22 23 45.5 25 81.5 19 122.5 8q120 0 179.5-16.5t76.5-46 17-89.5q0-19-3.5-133.5T1148 1192q0-41 6-70t15.5-42 18-18.5 17.5-5.5q61 0 190 212 84 137 142 289 17 43 69 43h358q84 0 84-51 0-36-44-119.5T1876 1238q-139-180-163-222-20-35-20-56 0-26 28-60t106-113l46-46q103-104 136.5-151.5T2043 502q0-37-30.5-56t-63.5-19h-295q-118 0-231 132-41 48-56.5 65t-43 44.5-46 36.5-36.5 9q-36 0-61.5-53.5T1152 518q-1-52-24-71.5t-66-19.5z"/><glyph unicode="" horiz-adv-x="2048" d="M2064 1225q-11-32-40.5-46.5t-60.5-4.5-46.5 39.5-5.5 61.5q33 95 11.5 200t-93.5 185q-71 80-171.5 111t-202.5 10q-33-7-60.5 11t-34.5 50q-7 33 11 60.5t50 34.5q143 31 284.5-13.5T1948 1767t131-259-15-282v-1zM877 256q-164 0-320.5 39T276 403.5 76 580 0 812q0 134 81.5 286T312 1399q144 144 297 228t265 84q79 0 123.5-43.5T1042 1544q0-46-12-90t-12-47q0-17 19-17 7 0 15 2t14 4l5 2q164 69 289 69 95 0 149-42t54-118q0-51-27-119-4-11-4.5-19.5t1.5-13.5 9-9.5 12-6.5 17-5q48-15 90.5-38.5t80-58 60-83T1824 849q0-79-43-162.5t-127.5-160-197-137.5-263.5-97-316-36zm916 1057q-8-27-33.5-40t-52.5-4q-27 8-40 33.5t-5 52.5q24 74-27 129-51 56-126 41-28-6-51.5 9.5T1428 1578t9.5 52 43.5 30q70 15 138.5-6.5T1737 1577t64-126.5-8-137.5zM784 375q184 0 341.5 63T1374 604.5t91 220.5q0 113-80.5 201.5t-210.5 135-283 46.5q-181 0-339-63T302 978t-92-221q0-108 76-195.5t207.5-137T784 375zm39 664q137 0 219.5-80t82.5-183q0-127-108-221.5T763 460q-126 0-213.5 76.5T462 725q0 129 109 221.5t252 92.5zm15-270q15-6 32.5.5T897 791q9 16 4 31.5T881 843q-16 7-33 .5T822 821q-9-15-4.5-30t20.5-22zM628 598q40-19 87-3.5t72 55.5 13.5 80.5T748 789q-40 17-85.5 1.5T592 736t-14.5-79.5T628 598z"/><glyph unicode="" horiz-adv-x="2048" d="M1552 2048h299q26 0 39-19 12-18-1-45L1235 827v-2l417-760q13-27 0-46-11-19-39-19h-295q-51 0-83 56-418 768-419 770l657 1166q15 27 32 41.5t47 14.5zM319 1664h293q52 0 82-55 201-350 202-352L579 697q-32-57-80-57H206q-26 0-39 20-12 20 0 45l312 550v2l-198 344q-14 25-2 45 10 18 40 18z"/><glyph unicode="" horiz-adv-x="2048" d="M1664 111q-7-5-20.5-12t-59-26.5-96-34T1358 12 1195 0Q910 0 775 127T640 512v640H341v299q82 27 143.5 58t119.5 78.5 97.5 109 68 150T811 2048h298v-512h470v-384h-470V640q0-85 10-137.5t38-91 78-54.5 130-16q57 0 131.5 21.5T1618 406l46 21V111z"/><glyph unicode="" horiz-adv-x="2048" d="M1024 2048q209 0 398.5-81t326.5-218 218-326.5 81-398.5-81-398.5T1749 299 1422.5 81 1024 0 625.5 81 299 299 81 625.5 0 1024t81 398.5T299 1749t326.5 218 398.5 81zm0-1920q182 0 348 71t286 191 191 286 71 348-71 348-191 286-286 191-348 71-348-71-286-191-191-286-71-348 71-348 191-286 286-191 348-71zm377 1327q0-10 1-20.5t4-21 5.5-19 8-20.5 8.5-18.5 10.5-20 10.5-19 12.5-21 12.5-20.5q64-103 64-211 0-12-1.5-26t-3-25-5.5-29-6.5-28-9.5-33-9.5-32.5T1491 853t-12-38l-76-256-277 825 88 7q20 2 27 18.5t-2.5 31.5-29.5 14q-123-9-204-9l-204 9q-19 1-28-14t-2.5-32 25.5-18q41-4 81-7l121-327-168-505-280 832 88 7q19 2 25.5 18.5T661 1441t-28 14q-126-9-204-9h-47q104 159 274 252.5t368 93.5q146 0 278-52.5t236-146.5h-9q-55 0-91.5-41t-36.5-97zm296-64q95-167 95-367 0-209-104-385.5T1410 360l235 678q57 144 57 275 0 55-5 78zM256 1024q0 156 64 308l365-998q-194 96-311.5 281T256 1024zm777-66l242-659q-116-43-251-43-105 0-218 31z"/><glyph unicode="" horiz-adv-x="2048" d="M1920 1280q53 0 90.5-37.5t37.5-90.5V640q0-130-51-248.5t-136.5-204-204-136.5T1408 0H640Q510 0 391.5 51t-204 136.5T51 391.5 0 640v768q0 130 51 248.5t136.5 204 204 136.5 248.5 51h384q130 0 248.5-51t204-136.5 136.5-204 51-248.5q0-53 31-90.5t76-37.5h149zM640 1536q-53 0-90.5-37.5T512 1408t37.5-90.5T640 1280h384q53 0 90.5 37.5t37.5 90.5-37.5 90.5-90.5 37.5H640zm768-1024q53 0 90.5 37.5T1536 640t-37.5 90.5T1408 768H640q-53 0-90.5-37.5T512 640t37.5-90.5T640 512h768z"/><glyph unicode="" horiz-adv-x="2048" d="M1710 183h19l26-171q-67-28-149-28-117 0-219.5 66T1228 232q-118-27-233-27-199 0-360 62.5T361.5 448t-173 292.5T128 1134q0 197 70 367.5t192 290 293.5 188T1051 2048q403 0 636-239t233-675q0-258-115.5-467T1487 337q47-82 100-118t123-36zm-673 589q92 0 176-46t144-128q136 181 136 536 0 342-124 513t-346 171q-219 0-343.5-178.5T555 1134q0-154 21-273t60-199 97.5-131T863 457.5t160-22.5q62 0 116 15-38 73-81.5 105T953 587q-4 0-14.5-1.5T922 584l-28 157q73 31 143 31z"/><glyph unicode="" horiz-adv-x="2048" d="M1024 1749q464 0 610-13 211-18 296-85 79-62 102-205 16-102 16-392v-30q0-301-13-401-21-152-95-217-79-71-278-91-148-16-596-16h-42q-464 0-610 13-211 18-296 85-79 62-102 205Q0 704 0 994v30q0 301 13 401 21 152 95 217 79 71 278 91 148 16 596 16h42zM768 640l640 384-640 384V640z"/><glyph unicode="" horiz-adv-x="2048" d="M1451 1323q0 66-28.5 109t-85.5 52-142-33q24 98 74 179.5t109 133.5 127 88.5 129 52 115 15.5q130 0 214.5-95.5T2048 1574q0-132-61.5-297.5t-159-322.5T1608 645t-242-265-228.5-182.5T962 128q-49 0-93 15.5t-76 38-61.5 58.5-48 66.5-37.5 74-28 69-21 62.5l-256 811q-18 55-43.5 75t-77 4T85 1323L0 1427q8 10 22.5 28t59.5 69 90 97.5T280.5 1725t121 98 122 69 116.5 28q47 0 85-17.5t64.5-45 48.5-71 35-84 24-97.5 16.5-98 13-98 12.5-86q15-95 31.5-180t40.5-176 53.5-145 59.5-54q41 0 120 102t143 237 64 216z"/><glyph unicode="" horiz-adv-x="2048" d="M256 341h256v1366H256v341h896v-341H896V341h555v384h403V0H256v341z"/><glyph unicode="" horiz-adv-x="2048" d="M1320 1598q0-123 40.5-233.5t113.5-195 184.5-134T1903 986V740q-103-3-199 14-203-439-588-726-40-33-85-33-35 0-81 29-372 258-584 711.5T154 1749h294q0-453 151.5-825T1026 327q255 220 402 528-129 77-221 198.5T1070.5 1317t-44.5 295q0 88 29.5 166.5T1139 1917t137.5 95.5T1462 2048t186.5-36.5 139.5-98 85-139.5 30-162q0-42-1.5-82t-6.5-89.5-7.5-74-11-89.5-10.5-82h-294q2 18 11 87.5t13.5 106.5 9 98 4.5 111q0 161-148 161-142 0-142-161z"/><glyph unicode="" horiz-adv-x="2048" d="M1579 1493q127 0 235-63t171-171 63-235-63-235-171-171-235-63-235.5 63T1172 789t-63 235 63 235 171.5 171 235.5 63zm-1110 0q127 0 235.5-63T876 1259t63-235-63-235-171.5-171T469 555t-235 63T63 789 0 1024t63 235 171 171 235 63z"/><glyph unicode="" horiz-adv-x="2048" d="M1749 2048q124 0 211.5-87.5T2048 1749V299q0-124-87.5-211.5T1749 0H299Q175 0 87.5 87.5T0 299v1450q0 124 87.5 211.5T299 2048h1450zm86-512v256q0 18-12.5 30.5T1792 1835h-256q-18 0-30.5-12.5T1493 1792v-256q0-18 12.5-30.5t30.5-12.5h256q18 0 30.5 12.5t12.5 30.5zm-811-128q-159 0-271.5-112.5T640 1024t112.5-271.5T1024 640t271.5 112.5T1408 1024t-112.5 271.5T1024 1408zm811-1152v896h-227q13-59 13-128 0-162-80-299.5T1323.5 507 1024 427t-299.5 80T507 724.5 427 1024q0 69 13 128H213V256q0-18 12.5-30.5T256 213h1536q18 0 30.5 12.5T1835 256z"/><glyph unicode="" horiz-adv-x="2048" d="M1025 825Q904 698 856 657 710 530 554 512q-31-4-64-4-219 0-354.5 146T0 1025q0 143 55.5 259T221 1470t256 70q72 0 139-19t118-47 106.5-76 94-89.5T1025 1205q48 58 87.5 100.5t94 89.5 106.5 76.5 118.5 49T1567 1540q222 0 351.5-144t129.5-366q0-143-58.5-261t-170-189.5T1564 508q-81 0-158 25.5T1261 606t-123 99-113 120zm-761 194q0-102 60-165.5T486 790q92 0 191.5 67.5T856 1018q-42 46-79.5 81t-89 75.5-106 63T477 1260q-93 0-153-72t-60-169zm930-1q85-101 176.5-164.5T1571 790q100 0 157.5 66t57.5 167q0 100-61.5 168.5T1562 1260q-52 0-103.5-21.5T1353 1172t-81.5-72.5-77.5-81.5z"/><glyph unicode="" horiz-adv-x="2048" d="M863 1911q0 67 47 114t114 47 114-47 47-114-47-114.5-114-47.5-114 47.5-47 114.5zm-282-283q67 0 114-47t47-114-47-114-114-47-114 47-47 114 47 114 114 47zm725-161q0 67 47 114t114 47 114-47 47-114-47-114-114-47-114 47-47 114zM137 1185q67 0 114.5-47t47.5-114-47.5-114T137 863 23 910t-47 114 47 114 114 47zm1612-161q0 67 47.5 114t114.5 47 114-47 47-114-47-114-114-47-114.5 47-47.5 114zm-725 161q67 0 114-47t47-114-47-114-114-47-114 47-47 114 47 114 114 47zM581 742q67 0 114-47t47-114-47-114-114-47-114 47-47 114 47 114 114 47zm886 0q67 0 114-47t47-114-47-114-114-47-114 47-47 114 47 114 114 47zm-443-443q67 0 114-47.5t47-114.5-47-114-114-47-114 47-47 114 47 114.5 114 47.5z"/><glyph unicode="" horiz-adv-x="2048" d="M1071 2048q164 0 305.5-56t236.5-149.5 149-215.5 54-252q0-229-79-412.5T1513 674t-330-105q-94 0-175.5 42T894 713q-67-270-83-322-22-83-75.5-179T650 72 600 7q-8-9-17.5-6.5T571 12q0 1-3.5 28T561 96.5t-5 77-1.5 91.5 5.5 97 16 98l149 640q-35 76-35 187 0 131 65 217.5t160 86.5q77 0 118-49.5t41-126.5q0-47-17.5-115t-46-158.5T969 998q-21-93 36.5-160.5T1157 770q109 0 194.5 86t131.5 228 46 312q0 200-129 325.5T1041 1847q-130 0-241-46t-184.5-124T501 1497.5 460 1285q0-138 78-233 16-20 19-31t-2-33q-3-16-24-94-5-23-21-31t-38 0q-118 50-179 171t-61 279q0 102 33 204.5T367 1716t166 169.5 236.5 118T1071 2048z"/><glyph unicode="" horiz-adv-x="2048" d="M1446 1977l602-394-417-334-607 375zM0 1583l602 394 422-353-607-375zM602 524L0 915l417 334 607-374zm1446 391l-602-391-422 351 607 374zm-420-481L1024 71 422 434v123l185-118 417 346 420-346 184 118V434z"/><glyph unicode="" horiz-adv-x="2048" d="M2038 70q10-13 9.5-29.5T2036 12q-14-12-31-12-16 0-27 10l-838 686-384-385q-14-12-31-12-11 0-22 6-28 18-18 51l111 315-626 731-49-49q-19-21-50-21-29 0-50 21t-21 50.5 21 49.5l574 574q20 21 49.5 21t50.5-21 21-50.5-21-49.5l-49-49 731-626 315 111q33 10 51-18 17-28-6-53l-385-384z"/><glyph unicode="" horiz-adv-x="2048" d="M1024 1024v1024h1024V1024H1024zM0 0v1024h1024V0H0z"/><glyph unicode="" horiz-adv-x="2048" d="M1980 1043q68-68 68-164.5T1980 714l-526-526q-25-25-67-42.5t-77-17.5H738q-35 0-77 17.5T594 188L68 714Q0 782 0 878.5T68 1043l792 792q68 67 164 67t164-67zM572 797l580 579q12 13 12 30.5t-12 29.5l-106 106q-13 13-30.5 13t-29.5-13L358 915q-12-13-12-30t12-30l58-58q12-10 24-10h108q14 0 24 10zm616 85q13 12 13 29.5t-13 29.5l-106 107q-12 12-29.5 12t-30.5-12L624 649q-13-12-13-29.5t13-29.5l58-59q12-10 24-10h108q14 0 24 10zm-46-538q12 12 12 29.5t-12 30.5l-106 106q-13 12-30.5 12T976 510L870 404q-13-13-13-30.5t13-29.5l58-58q8-10 24-10h108q14 0 24 10z"/><glyph unicode="" horiz-adv-x="2048" d="M1707 1785q-207-238-541-372-172 322-398 602 130 33 256 33 194 0 369.5-69t313.5-194zM595 1953q231-280 403-597-401-118-977-128 48 240 200.5 431.5T595 1953zm1221-280q110-133 170.5-298.5T2048 1029q-384 86-716 31-28 72-95 215 352 141 579 398zm-735-677Q594 823 270 329 142 469 71 647.5T0 1024v47q642 12 1069 145 47-93 90-197-52-14-78-23zm308-86q308 45 647-40-32-216-150-398t-298-301q-73 401-199 739zm-173-35q138-366 211-792-190-83-403-83-176 0-339.5 57.5T389 220q326 515 827 655z"/><glyph unicode="" horiz-adv-x="2048" d="M853 1071q8-2 21.5-7t47.5-27.5 59.5-52.5 47-87 21.5-127q0-77-24-143t-76-122-147.5-88.5T576 384H0v1280h619q179 0 285-86.5t106-245.5q0-50-12.5-93t-27-67.5T930 1124t-37.5-30.5T860 1075q-5-3-7-4zm1024 550v-128h-554v128h554zM294 1441v-282h273q187 0 187 145 0 79-52.5 108T533 1441H294zm1754-597v-57h-668q1-107 66.5-167.5T1607 559q39 0 72.5 11t53 26.5 33 30.5 18.5 26l6 11h246q-30-134-149.5-216.5T1600 365q-208 0-335 125.5T1138 844q0 122 34.5 217t96.5 154.5 144 90.5 180 31q219 0 337-130t118-363zm-664 102h415q0 83-58 138.5t-148 55.5q-92 0-145.5-55T1384 946zM567 607q118 0 165.5 47.5T780 789q0 159-209 159H294V607h273z"/><glyph unicode="" horiz-adv-x="2048" d="M1899 1413q149-189 149-429 0-178-45.5-315t-130-230.5-212-153.5-283.5-87-353-27q-247 0-431.5 43T273 351.5t-204 252T0 981q0 245 149 429-53 285 22 467 242-19 445-180 195 52 408 52 214 0 405-52 210 161 448 180 75-182 22-464zM1024 299q754 0 754 426 0 85-26.5 152T1685 982.5t-92 63.5-97 33.5-88 8.5q-48 0-144-10.5t-240-10.5-240 10.5-144 10.5q-43 0-88-8.5t-97-33.5-92-63.5T296.5 877 270 725q0-426 754-426zM704 896q107 0 107-192T704 512 597 704t107 192zm640 0q107 0 107-192t-107-192-107 192 107 192z"/><glyph unicode="" horiz-adv-x="2048" d="M1010 1982l182 182 723-725-180-180zm-339-565l106 233 930-432-109-232zM531 863l43 253 1009-177-45-254zm1133-95h256V0H128v768h256V256h1280v512zM512 384v256h1024V384H512z"/><glyph unicode="" horiz-adv-x="2048" d="M1643 2048q114 0 195.5-81.5T1920 1771v-96H171v96q0 114 81 195.5t196 81.5h1195zM171 1568h1749v-363H171v363zm0-469h1749V736H171v363zm0-470h1749v-96q0-114-81.5-195.5T1643 256h-107l-384-384v384H448q-115 0-196 81.5T171 533v96z"/><glyph unicode="" horiz-adv-x="2048" d="M1024 581q-156 0-295.5 26.5T497 675t-148 87.5-63 88.5q0-2-37 215.5t-74.5 443T137 1754q0 80 119 148t323.5 107 444.5 39 444.5-39 323.5-107 119-148q0-19-37.5-245t-74.5-442l-37-216q-7-42-63-88.5T1551 675t-231.5-67.5T1024 581zm0 1082q235-1 401.5 34.5T1592 1783t-166.5 85.5T1024 1904q-235 1-401.5-34T456 1785t166.5-86 401.5-36zm0-884q117 0 199.5 82.5T1306 1061q0 116-82.5 199t-199.5 83-199.5-83-82.5-199q0-117 82.5-199.5T1024 779zm0 423q58 0 99.5-41t41.5-100-41.5-100.5T1024 919t-100 41.5-42 100.5q0 58 41.5 99.5T1024 1202zm0-1202Q788 0 614.5 67T419 234q-4 16-63 330-1 3-1 8 0 16 9 25t22 9q6 0 12.5-2t9.5-4l3-3q9-7 26-18.5t76-41.5 125-53 170.5-41.5T1024 424t214.5 18 173 43 122.5 50.5 78 43.5l25 18q11 9 25 9 13 0 22-9t9-25q0-5-1-8-59-314-63-330-22-100-195.5-167T1024 0z"/><glyph unicode="" horiz-adv-x="2048" d="M1024 2048q209 0 398.5-81t326.5-218 218-326.5 81-398.5-81-398.5T1749 299 1422.5 81 1024 0 625.5 81 299 299 81 625.5 0 1024t81 398.5T299 1749t326.5 218 398.5 81zm0-1880q174 0 332.5 68t273 182.5 182.5 273 68 332.5-68 332.5-182.5 273-273 182.5-332.5 68-332.5-68-273-182.5-182.5-273-68-332.5 68-332.5 182.5-273 273-182.5 332.5-68zm0 223q-16 0-30 9L415 786h-1l-2 2-3 3-1 1q-2 0-2 1t-4 5q-2 2-2 4l-2 2-1 2-1 2-1 2q-1 2-1 4-1 1-1 3-1 2-1 5-1 1-1 2v400l1 2q0 3 1 5 0 2 1 3 0 2 1 4 1 1 1 2t1 2l1 2 2 2q0 2 6 9 0 1 1 1t2 1l3 3 2 2h1l579 386q30 20 60 0l579-386h1l2-2 3-3 1-1q2 0 2-1t4-5q2-2 2-4l2-2 1-2q1-1 1-2l1-2q1-2 1-4 1-1 1-3 1-2 1-5 1-1 1-2V824l-1-2q0-3-1-5 0-2-1-3 0-2-1-4-1-1-1-2l-1-2-1-2-2-2q0-2-6-9 0-1-1-1t-2-1l-3-3-2-2h-1l-579-386q-14-9-30-9zm54 1110v-254l236-158 191 128zm-108 0l-427-284 191-128 236 158v254zm54-606l192 129-192 129-192-129zm524 38v182l-136-91zM500 1115V933l136 91zm578-568l427 284-191 128-236-158V547zM543 831l427-284v254L734 959z"/><glyph unicode="" horiz-adv-x="2048" d="M1828 1091q115-47 186-150t71-230q0-170-122.5-290.5T1667 300H384q-175 3-298 126T-37 722q0 114 57 209.5T173 1084q-14 42-14 85 0 119 85.5 203t206.5 84q97 0 178-60 77 159 230.5 256.5T1198 1750q129 0 246-49t201.5-132.5T1780 1370t50-241q0-7-1-19t-1-19zM448 815q0-121 84.5-197T751 542q73 0 131.5 23.5T999 644l-95 111q-68-67-148-67-59 0-98 37t-39 89q0 53 39.5 89t95.5 36q50 0 105-33t98-92l97-113q126-160 308-160 128 0 213.5 77t85.5 195q0 120-84.5 196t-217.5 76q-77 0-136-23t-114-78l96-112q68 67 148 67 63 0 100-38t37-85q0-56-38-92t-98-36q-104 0-202 126l-97 113q-129 158-305 158-131 0-216.5-76T448 815z"/><glyph unicode="" horiz-adv-x="2048" d="M738 958q-28 0-50.5-19T661 892l-95-592H175q-19 0-31 15t-9 32l262 1635q5 28 27 47t50 19h610q278 0 421-106t143-301q0-48-7.5-101t-28.5-121-53.5-130.5-88-124-127-106.5-175.5-72.5T940 958H738zm1016 495q160-86 160-290 0-44-5-90.5T1887.5 963 1844 844.5 1767.5 732 1654 634.5t-161-66-214-25.5h-42q-29 0-51-19t-26-47l-66-411q-4-28-26.5-47T1017 0H695q-19 0-31 15t-9 32l126 783h159q150 0 277.5 37t216 97 156 142.5 106 168T1754 1453z"/><glyph unicode="" horiz-adv-x="2048" d="M1849 567q83-103 69-236.5T1801 114q-102-81-230.5-69.5T1356 152L896 711V320q0-133-94-226.5T576 0Q442 0 349 93t-93 227v1408q0 132 93.5 226t226.5 94q131 0 225.5-94.5T896 1728v-344l389 517q78 105 208 124.5t237-60.5q105-78 124.5-208t-60.5-238l-386-452z"/><glyph unicode="" horiz-adv-x="2048" d="M1800 609h105L1831 0Q1083 14 580 14 318 14 85 0v121q97 11 152 23t85.5 34.5 39 48T372 299q12 267 12 723 0 416-14 730-2 48-10.5 73t-38 47-84.5 34-152 23v121q384-19 905-19 212 0 311.5 1t235 8 270.5 22l-33-588h-111q-35 168-72 259t-85 128.5-121 37.5H748q-27 0-37.5-10t-10.5-38v-763h123q82 0 118.5-.5t93 3 76 3.5 55.5 11.5 44 15 29 25 23.5 32 14.5 46 15 56 12 72.5q6 36 10 56h114q-20-293-20-384 0-88 13-365h-114q-4 18-10 51-24 128-43 165-27 52-95 69-64 16-288 16H700V334q0-185 190-185h450q63 0 103 4.5t83 21 73.5 46 65 81.5 66 126 69.5 181z"/><glyph unicode="" horiz-adv-x="2048" d="M1294 0L119 220l160 1236q2 19 11 28t32 17l205 65q30 129 79.5 229.5t107 158 116 86.5 115.5 29q76 0 119-62 11 1 21 1 71 0 123.5-56.5T1291 1803l63 19q11 3 19 3 17 0 26-8l122-122 164-12q17-1 20-17l225-1529zM607 1590l163 51q54 271 217 344-20 14-44 14-40 0-85-23t-91.5-69.5-89-128.5-70.5-188zm520 162l99 30q-20 65-52 108t-73 46q26-80 26-184zm-275-86l204 64q0 125-26 193-62-26-109-95t-69-162zM995 647q0 69-36.5 133.5T855 894q-14 10-49 34.5T758 964t-27 31.5-14 42.5q0 45 33 71.5t102 26.5q64 0 147-38l79 234q-64 30-161 30-96 0-176-31t-132-83-80-120-28-143q0-139 137-241 52-40 71-69t19-64q0-37-22-58.5T649 531q-81 0-198 90l-53-177q51-58 131.5-92T697 318q134 0 216 89.5T995 647z"/><glyph unicode="" horiz-adv-x="2048" d="M1629 2048q117 0 156-65t12-196l-194-972q-7-26-11-40t-17.5-40-30.5-40-48-26-71-12h-333q-10 0-13.5-1.5T1065 643L540 36q-18-21-46-29.5T444.5 0 409 8q-68 28-68 120v1735q0 30 10 60t31 59 61 47.5 93 18.5h1093zm-65-296q6 29-11.5 49.5T1510 1822H633q-28 0-47-21t-19-45V402q0-3 2-4t4 2q323 388 359 433 27 33 46 42t60 9h295q27 0 45 17.5t22 36.5q1 5 11.5 58.5t20.5 107 14 69.5q5 27-14.5 50t-45.5 23h-361q-36 0-59.5 23t-23.5 59v52q0 36 23.5 58t59.5 22h425q22 0 43 17t25 36z"/><glyph unicode="" horiz-adv-x="2048" d="M1031 1291q0-132-90-132-52 0-105 71l-396 540q-45 62-45 104 0 45 87 78l362 134q57 21 79 21 47 0 75.5-42.5T1027 1938zm231-335q-35 0-54.5 18.5T1188 1026q0 29 23 63l271 428q13 19 19.5 27t21 17 31.5 9q22 0 38-11t42-42l190-224q29-32 40-53.5t11-50.5q0-33-27.5-55.5T1758 1092l-422-123q-45-13-74-13zm-468 5q33-17 49-37t16-51q0-74-83-93L325 680q-73-16-106-16-32 0-41.5 26t-5.5 83l26 329q9 99 82 99 38 0 100-31zm409-248q0 28 21 50t52 22q21 0 60-12l470-151q37-11 54-26.5t17-39.5q0-35-26-72l-193-277q-35-51-87-51-30 0-51.5 19t-52.5 69l-249 417q-15 25-15 52zm-247-27q35 0 55.5-22.5T1031 609l-8-520q0-47-16.5-68T951 0q-26 0-74 15l-287 91q-44 14-63.5 34T507 194q0 38 35 78l335 369q42 45 79 45z"/><glyph unicode="" horiz-adv-x="2048" d="M1507 1884q0-58-18.5-116.5t-58.5-120-113-120.5-172-107q-58 127-58 277 0 156 85.5 267.5T1373 2076q64 0 99-54.5t35-137.5zm-507-558q-278-140-529-140-124 0-232 42.5t-177 109-108 145-39 153.5q0 118 103 196.5t263 78.5q220 0 417.5-158.5T1000 1326zM876 779q0 187 107.5 320.5T1286 1293q-45-74-45-220 0-158 45-319.5t117-288 163-218T1747 125q-50-46-143-82T1436 7q-106 0-199.5 51.5t-158 134.5T967 378.5 898 584t-22 195zm730 509q43 0 99-27t116-82.5 111-129 83.5-177T2048 657q0-94-17.5-170.5t-61.5-130-109-53.5q-58 0-130.5 67T1594 541t-106.5 245-43.5 273q0 111 45 170t117 59zM457 180q0 36 77.5 221T697 728q7-228 90-423T999-28Q895-10 759 30t-212 73q-52 22-71 39.5T457 180z"/><glyph unicode="" horiz-adv-x="2048" d="M1951 870q97-143 97-315 0-150-74.5-278T1771 74.5 1493 0q-172 0-315 97-86-12-154-12-191 0-365 74.5t-299.5 200-200 299.5T85 1024q0 68 12 154-97 143-97 315 0 150 74.5 278T277 1973.5t278 74.5q172 0 315-97 86 12 154 12 191 0 365-74.5t299.5-200 200-299.5 74.5-365q0-68-12-154zm-908-486q138 0 256 46t194 141 76 221q0 267-426 362l-143 31q-39 9-59.5 14.5t-48.5 16-41 21.5-23 28.5-10 40.5q0 54 52 80.5t145 26.5q60 0 106-16t74-39.5 52.5-46.5 54.5-39 66-16q63 0 102.5 43.5T1510 1406q0 75-77 135.5t-195.5 91.5-249.5 31q-93 0-179-21t-162-64-122-119-46-175q0-83 26-145.5t77-103.5 109-66 139-46l201-47q113-29 142-44 55-29 55-89 0-52-55-87.5T1029 621q-59 0-107.5 15.5t-79 39-59.5 51-51 51-52 39-64 15.5q-67 0-102-41t-35-101q0-83 76-153.5T761 425t282-41z"/><glyph unicode="" horiz-adv-x="2048" d="M1580 600q18 44 23 87t-2 48q-2 3-5 6.5t-9 7-9.5 6-14 7.5-15.5 8q-174 93-191 100-18 10-34.5 8.5T1292 858q-33-46-95-108-23-26-62-5-3 2-23 11t-38.5 19.5-45.5 27-57 40.5-60 52q-91 87-151 204-10 12-6.5 25t7 18 13.5 14q8 8 24.5 26.5T819 1205q11 12 30 46 13 23 0 50-3 7-18 47t-34 93-28 75q-5 12-9.5 21t-10 14.5-9 8.5-9.5 4.5-8.5 2-8.5 0-7-.5q-8 0-26.5 2t-28.5 3q-43 2-77-33l-5-5q-25-25-42-45t-38.5-72-23.5-112q-5-131 105-300l15-24q15-23 35-51.5t51-69 70-81.5 84-82 101.5-78 114.5-63q82-36 139-57t90.5-27.5 49.5-7.5 34.5 3.5 26.5 4.5q45 3 112 43t86 86zm-556 1448q209 0 398.5-81t326.5-218 218-326.5 81-398.5-81-398.5T1749 299 1422.5 81 1024 0Q739 0 497 146L10-10l158 471Q0 718 0 1024q0 209 81 398.5T299 1749t326.5 218 398.5 81z"/><glyph unicode="" horiz-adv-x="2048" d="M2034 1470q14-19 14-43-24-145-175-242-57-37-131-64 7-43 7-97 0-174-69-332t-186-272-279-181.5T875 171t-340 67.5T255.5 420 69 692 0 1024t69 332 186.5 272T535 1809.5t340 67.5q129 0 256-35v-505q-84 50-192 50-107 0-199-42.5T591 1237t-89.5-138T469 960q0-92 50.5-162t127-103.5T811 661q127 0 239.5 58T1232 881t69 228v662q24-12 176-100 73-45 118.5-70t113.5-55 137-43.5 145-13.5q22 0 43-19z"/><glyph unicode="" horiz-adv-x="2048" d="M1024 2048q209 0 398.5-81t326.5-218 218-326.5 81-398.5-81-398.5T1749 299 1422.5 81 1024 0 625.5 81 299 299 81 625.5 0 1024t81 398.5T299 1749t326.5 218 398.5 81zm654-922q38 0 67 28t29 68q0 56-45 82-338 202-872 202-257 0-473-64-30-9-49-34.5t-19-56.5q0-38 28-67.5t67-29.5q13 0 30 5 207 55 421 55 471 0 769-175 22-13 47-13zm-86-165q-320 193-745 193-218 0-406-59-25-7-40-28t-15-46q0-34 23.5-58t55.5-24q9 0 25 4 166 50 355 50 381 0 665-170 22-12 42-12 34 0 56.5 23t22.5 58q0 43-39 69zm-120-302q-258 161-607 161-167 0-387-47-23-5-36.5-22.5T428 711q0-25 19.5-44.5T492 647q5 0 15 2 206 46 382 43 291-5 515-141 17-11 35-11 25 0 44 17.5t20 42.5q1 38-31 59z"/><glyph unicode="" horiz-adv-x="2048" d="M1138 1045q17-56 30.5-94.5T1203 866t43-76.5 53.5-61 69-48.5 87-29 108.5-11q245 0 245 128 0 41-20 69.5t-54.5 45-79 28.5-93 22.5T1465 957t-93.5 36-79 55-54.5 85-20 123q0 171 115 254t303 83q373 0 403-299l-235-28q-9 74-52.5 108t-130.5 34q-79 0-123.5-33.5T1453 1282q0-42 20.5-71t55-45 79-27 93.5-21 98.5-22.5 94-36.5 79-57.5 55-90T2048 780q0-76-26.5-133.5t-85-101.5-159-67-241.5-23q-74 0-140 10.5T1280 493t-94.5 43.5-75.5 53-59 62.5-46 66-35 69-26.5 65-21.5 61q-5 14-7 21-9 28-24 75t-23.5 73.5-23 66.5-25.5 63-28.5 54.5-34.5 49-40.5 38T666 1384t-59 17-71 7q-133 0-211-103.5T247 1024q0-181 78.5-282.5T512 640q56 0 109 14.5t88.5 35.5 63.5 42 41 36l13 14 76-204q-6-5-16.5-13.5T839 535t-79-37-109-29.5T512 455q-81 0-152 15.5T221.5 525 106 624.5 29 782 0 1003q0 156 42 273t116.5 184.5 167 100T529 1593q85 0 154-12t122.5-33 97.5-58.5 76-78 61.5-102 51-121T1138 1045z"/><glyph unicode="" horiz-adv-x="2048" d="M968 1651q108 43 184 43 133 0 249-65.5t188-176.5 83-243q55 23 114 23 124 0 210.5-86.5T2083 936t-86.5-209.5T1786 640H972q-14 1-23 11.5T939 676v939q1 25 29 36zM754 669q-4-17-17.5-27T708 632q-16 0-29.5 10T661 669q-19 70-31 162.5T618 963q0 49 15.5 265t31.5 301q2 14 15 24.5t28 10.5q14 0 27-10.5t16-24.5q15-85 30.5-302T797 963q0-39-12-131.5T754 669zm-306 4q-14-42-49-42-37 0-49 42-15 51-28 150t-13 133q0 41 13.5 178t31.5 221q4 15 17 24.5t28 9.5q14 0 27-9.5t17-24.5q18-84 31.5-221T488 956q0-33-12.5-132.5T448 673zM42 1147q10 34 48 34 37 0 47-34 18-53 30-115.5t12-86.5-12-86.5T137 743q-10-33-47-33-38 0-48 33-18 53-30 115.5T0 945t12 86.5T42 1147z"/><glyph unicode="" horiz-adv-x="2048" d="M1067 1067v981h981v-981h-981zM0 1067v981h981v-981H0zM1067 0v981h981V0h-981zM0 0v981h981V0H0z"/><glyph unicode="" horiz-adv-x="2048" d="M853 1821l1110 227v-967l-1110-11v751zM85 1664l683 140v-735l-683-7v602zm0-1280v602l683-7V244zm768-157v751l1110-11V0z"/><glyph unicode="" horiz-adv-x="2048" d="M1314 1978q140-72 223.5-201.5T1621 1493H427q0 154 83.5 283.5T734 1978l-112 187q-11 18 7 29t29-7l115-190q117 51 251 51t251-51l115 190q11 18 29 7t7-29zm-13-271q27 0 45.5 18.5t18.5 45.5q0 26-18.5 45t-45.5 19q-26 0-45-19t-19-45q0-27 19-45.5t45-18.5zm-554 0q26 0 45 18.5t19 45.5q0 26-19 45t-45 19q-27 0-45.5-19t-18.5-45q0-27 18.5-45.5T747 1707zm1045-235q53 0 90.5-37.5t37.5-90.5V768q0-53-37.5-90.5T1792 640t-90.5 37.5T1664 768v576q0 53 37.5 90.5t90.5 37.5zm-1536 0q53 0 90.5-37.5T384 1344V768q0-53-37.5-90.5T256 640t-90.5 37.5T128 768v576q0 53 37.5 90.5T256 1472zm171-21h1194V555q0-53-37.5-90.5T1493 427h-128V128q0-53-37.5-90.5T1237 0t-90.5 37.5T1109 128v299H939V128q0-53-37.5-90.5T811 0t-90.5 37.5T683 128v299H555q-53 0-90.5 37.5T427 555v896z"/><glyph unicode="" horiz-adv-x="2048" d="M1164 1749q63 0 108-14t67.5-38 32.5-49 10-54q0-39-13.5-72.5T1324 1458t-88.5-47.5T1099 1393H817l77 356h270zm-729 0q63 0 107.5-14t67.5-38 32.5-49 9.5-54q0-39-13.5-72.5T594 1458t-88.5-47.5T369 1393H87l76 356h272zm1395-318q63 0 108-14t67.5-38.5 32.5-49.5 10-54q0-84-66-142.5t-217-58.5h-283l77 357h271zm-763-218q63 0 108-14t67.5-38 32.5-49 10-54q0-39-14-72.5t-44.5-63.5-88.5-47.5-137-17.5H719l77 356h271zm-730 0q63 0 108-14t67.5-38 32.5-49 10-54q0-39-14-72.5T496.5 922 408 874.5 271 857H-11l77 356h271zm1388-341q63 0 108-14t67.5-38.5T1933 770t10-53q0-39-14-72.5t-44.5-63.5-88.5-47.5-137-17.5h-282l77 356h271zM962 655q63 0 108-14t67.5-38.5 32-49.5 9.5-53q0-39-13.5-72.5t-44-63.5-88-47.5T897 299H614l77 356h271z"/><glyph unicode="" horiz-adv-x="2048" d="M1024 2048q209 0 398.5-81t326.5-218 218-326.5 81-398.5-81-398.5T1749 299 1422.5 81 1024 0 625.5 81 299 299 81 625.5 0 1024t81 398.5T299 1749t326.5 218 398.5 81zm0-1937q186 0 355 72.5T1670 378t194.5 291 72.5 355-72.5 355-194.5 291-291 194.5-355 72.5-355-72.5T378 1670t-194.5-291-72.5-355 72.5-355T378 378t291-194.5 355-72.5zm269 845l-334 571q-9 15-4.5 32.5T974 1585l56 33q15 9 32 4.5t26-19.5l334-571zm-468 391l42 72q8 15 25.5 19.5t32.5-4.5l55-32q16-8 20.5-25.5T996 1344l-41-72zm108-112L643 732l-130 75 291 503zM384 939v149h242l-86-149H384zm513 149h270l87-149H811zm542 0h225V939h-138zm5-93l68-117-129-75-68 117zm108-174q55-47 55-145 0-82-20-128-7-15-23-8-5 3-9 10-12 36-32 56.5t-46.5 38T1436 678q-39 43-34 87l124 72q16-7 26-16zM494 769l125-73-174-157z"/><glyph unicode="" horiz-adv-x="2048" d="M176 2053l1027-1028L174-4q-46 28-46 102v1852q0 76 48 103zm152-32l1207-664-271-272zm1654-910q66-36 66-87t-66-87l-367-203-291 291 289 289zm-718-146l273-273L323 24z"/><glyph unicode="" horiz-adv-x="2048" d="M1417 2087q18-111-35-227.5T1225 1667t-222-72q-10 82 11.5 158.5t65 134 101 101.5 118.5 68.5 118 29.5zm-757-466q60 0 117.5-16.5t95.5-36 88.5-36 98.5-16.5q49 0 111.5 26t136.5 52.5 151 26.5q68 0 134.5-24t112.5-58.5 82-69 54-58.5l17-24q-10-5-26-15.5t-57-47.5-72.5-80-57-114-25.5-149q0-67 16.5-127t43-102 58-77 63.5-56.5 58.5-36.5 43.5-21l16-6q-5-12-14-32t-39-77.5-61-110-78.5-116.5-93.5-110-103.5-77.5T1419 0q-49 0-91 13.5t-69 29-78.5 29T1062 85q-73 0-135.5-21.5T809 21 701 0q-73 0-155 59T391 219.5 258 445t-95 266-35 270q0 131 36 241.5t92.5 182 128 122T526 1599t134 22z"/><glyph unicode="👍" horiz-adv-x="2048" d="M1944 917q47-25 75.5-70.5T2048 747q0-67-42.5-120.5T1899 559q21-42 21-90 0-71-42-127t-107-77q21-42 21-94 0-71-50-121T1621 0h-426q-53 0-124 15.5T951 52L512 256v896q153 102 259 187t172.5 156 103 143 49.5 136 13 146q0 53 37.5 90.5t90.5 37.5q36 0 73-25.5t67-69.5q74-102 74-246 0-72-20.5-164t-40.5-148-22-56q-7-21 4-40 13-19 36-19h448q80 0 136-56t56-136q0-54-29-100.5t-75-70.5zM341 1237V43q0-18-12.5-30.5T299 0H43Q25 0 12.5 12.5T0 43v1194q0 18 12.5 30.5T43 1280h256q17 0 29.5-12.5T341 1237z"/><glyph unicode="📞" horiz-adv-x="2048" d="M244 0q-12 0-16 2-14 6-24 24L2 533q-5 16 1.5 31.5T24 588l559 280q25 13 50-8l272-275q340 210 555 558l-272 272q-21 25-8 50l280 559q8 14 23.5 20.5t31.5 1.5l507-202q18-10 21-24 5-7 5-16 0-10-2-17-29-230-108.5-447T1738 936.5t-280-347-347-280-403.5-199T261 2q-7-2-17-2z"/><glyph unicode="🔗" horiz-adv-x="2048" d="M1884 1100l-289-289q3 34 3 68 0 127-45 249l151 154q87 88 87 211 0 124-87 211t-211 87q-123 0-211-87l-320-317q-88-91-88-214 0-124 88-211 39-39 39-91 0-51-39-89-36-37-90-37-53 0-90 37-79 80-120 182.5T621 1175t41 210 120 182l318 317q80 80 181.5 122t209.5 42 210.5-42 182.5-122 122-182.5 42-210.5-42-209.5-122-181.5zm-618-619L946 161Q866 81 764 40T553-1 342.5 40 161 161 40 342.5-1 553t41 211 121 182l292 291q-3-35-3-68 0-131 45-252L344 766q-87-87-87-211t87-211 211-87 211 87l317 317q89 86 89 211t-89 211q-37 37-37 92 0 54 37 91 38 38 92 38 53 0 91-38 79-80 120-182t41-211-41-211-120-181z"/><glyph/><glyph horiz-adv-x="682"/><glyph horiz-adv-x="512"/><glyph unicode="+" horiz-adv-x="1384" d="M1292 510H777V0H607v510H92v175h515v510h170V685h515V510z"/><glyph unicode="-" horiz-adv-x="1975"/><glyph unicode="0" horiz-adv-x="1157" d="M1096 727q0-330-136-527.5T590 2Q461 2 363 60T206 220t-89.5 230T84 729q0 391 137.5 586.5T594 1511q238 0 370-194.5T1096 727zm-189 23q0 596-313 596-102 0-171.5-70.5t-101.5-191T289 799q0-182 32-321.5T423 253t171-85q96 0 168.5 81.5T871 462t36 288z"/><glyph unicode="5" horiz-adv-x="1141" d="M1090 494q0-77-21-149t-63.5-134.5-103-109.5T757 27 573 0q-89 0-173 24T244 95 128 222.5 84 406h192q15-120 94.5-182T578 162q135 0 227 91.5T897 479q0 110-46 188T733.5 781 573 817q-94 0-169-35.5T297 684l-160 8 109 787h766v-181H387l-63-403q38 37 119.5 62.5T606 983q99 0 185.5-30.5T945 863t106-154 39-215z"/><glyph unicode="A" horiz-adv-x="1375" d="M905 607l-218 654-237-654h455zM1344 0h-218L981 429H386L232 0H28l555 1479h230z"/><glyph unicode="B" horiz-adv-x="1375" d="M1287 443q0-132-64.5-234.5T1054 53 827 0H147v1479h668q165 0 280-99t119-275q0-100-50-187.5T1022 796q117-41 191-133.5t74-219.5zm-270 619q0 122-62.5 181T735 1306H351V851h389q139 0 206 60.5t71 150.5zm71-645q0 66-14 111.5t-50.5 82.5-105 56T747 687H351V168h462q69 0 123 23t85.5 60.5 48 79.5 18.5 86z"/><glyph unicode="C" horiz-adv-x="1489" d="M1403 543q-11-96-44.5-183t-89-160-128-126.5-167-83.5T773-40Q623-40 502.5 9T306 136.5t-127.5 184-72.5 212T85 751q0 116 27 225t82.5 206 135 170.5 191 118T763 1519q57 0 115.5-9t125.5-28.5 127.5-57 113-89T1335 1206t52-173h-195q-29 147-137.5 225.5T792 1337q-105 0-189-31t-140.5-84-94-128.5-55-160T294 751q2-91 19-177t53-166 87.5-139.5 128-95.5T751 137q193 0 310 107t146 299h196z"/><glyph unicode="D" horiz-adv-x="1489" d="M1384 792q0-125-24.5-240.5t-74-215-119-173.5-166-117.5T792 0H164v1479h621q77 0 155.5-22t157.5-74.5 140-129 101.5-196T1384 792zm-206-17q0 85-13.5 160.5t-45.5 144-79.5 118-120 79T756 1306H367V168h413q119 0 210.5 81T1130 467t48 308z"/><glyph unicode="E" horiz-adv-x="1375" d="M1266 0H173v1479h1081v-180H375V849h810V671H375V178h891V0z"/><glyph unicode="F" horiz-adv-x="1256" d="M1197 1299H375V849h725V671H375V0H173v1479h1024v-180z"/><glyph unicode="G" horiz-adv-x="1598" d="M1446 0h-128l-47 197q-70-98-200-161.5T785-33Q639-33 523 6T328 114.5 196.5 283t-76 215T97 751q0 112 26.5 219.5t83.5 205 137.5 171 197 118T796 1510q113 0 217.5-31t190.5-90 144.5-152 73.5-208h-192q-27 109-95 180t-154 99.5-194 28.5q-212 0-349-161.5T301 740q0-295 134-454.5T787 126q173 0 310 106 91 74 125.5 158.5T1261 616H801v171h645V0z"/><glyph unicode="H" horiz-adv-x="1489" d="M1332 0h-201v687H358V0H156v1479h202V865h773v614h201V0z"/><glyph unicode="I" horiz-adv-x="569" d="M386 0H185v1479h201V0z"/><glyph unicode="J" horiz-adv-x="1029" d="M882 398q0-117-33.5-203T755 59 620.5-14.5 455-40q-93 0-167 23T167 43t-78 86.5-43.5 99T33 329v145h187V370q0-123 54.5-181.5T443 130q122 0 177.5 62T678 386v1093h204V398z"/><glyph unicode="K" horiz-adv-x="1375" d="M1363 0h-258L585 740 353 519V0H152v1479h201V759l718 720h275L730 882z"/><glyph unicode="L" horiz-adv-x="1147" d="M1105 0H152v1479h201V178h752V0z"/><glyph unicode="M" horiz-adv-x="1711" d="M1567 0h-197v1242L958 0H759L337 1240V0H147v1479h287L860 225l422 1254h285V0z"/><glyph unicode="N" horiz-adv-x="1489" d="M1332 0h-227L351 1192V0H156v1479h237l745-1197v1197h194V0z"/><glyph unicode="O" horiz-adv-x="1598" d="M1519 740q0-56-5.5-112T1490 493.5 1442 347t-85-138.5-127.5-121T1047 4 804-31q-145 0-265.5 43t-203 116.5-140 172.5-84 209.5T85 740q0 124 27 236t85 209 141.5 168.5 202.5 113 263 43.5q113 0 211-25.5t169.5-69.5 129.5-105 95.5-129.5 63-145 36-149.5 10.5-146zm-201 0q0 264-136.5 426T804 1332q-230 0-372.5-160.5T289 740q0-267 138-428t377-165q241 0 377.5 162.5T1318 740z"/><glyph unicode="P" horiz-adv-x="1375" d="M1278 1062q0-66-14-126t-47-117-82.5-99-125.5-68.5T839 623H375V0H173v1479h666q188 0 311-109t128-308zm-207 0q0 244-291 244H375V792h398q295 0 298 270z"/><glyph unicode="Q" horiz-adv-x="1598" d="M1519 740q0-358-215-569l201-157-97-121-228 178Q1025-31 801-31q-145 0-265.5 43T332 128.5 191.5 301t-84 209.5T81 740q0 124 27 236t85 209 141.5 168.5 203 113T801 1510q113 0 210.5-25.5T1181 1415t130-105 96.5-129.5 64-145T1508 886t11-146zm-206 0q0 264-135.5 426T801 1332q-231 0-372.5-160T287 740q0-268 137-428.5T801 147q119 0 216 47L863 311l102 125 189-144q159 165 159 448z"/><glyph unicode="R" horiz-adv-x="1489" d="M1124 1052q0 112-58.5 181T879 1306H356V804h507q112 0 186.5 69t74.5 179zM1384 0h-225q-26 57-37.5 150t-15 186.5T1100 450q-26 178-242 181H356V0H154v1479h709q89 0 169-24t146-71.5 106-128 43-184.5q0-230-215-343 79-25 126-87t56-153q6-56 12.5-157t14.5-165.5T1346 59q18-42 38-59z"/><glyph unicode="S" horiz-adv-x="1375" d="M1273 415q0-145-76.5-247.5T992 17 695-31Q411-31 257 96T102 488h185q0-78 24-139t62.5-98.5T467 188t109.5-35.5T695 140q59 0 112 7.5T911 173t88 45.5 59.5 71T1081 389q0 39-8.5 69.5t-24.5 54-44.5 42.5-64 34-88 29.5-110.5 28T603 678q-36 8-55 12-67 15-119.5 32.5T322 770t-90 67.5-59.5 94T147 1057q0 92 30 171.5t90 143.5 161 101 231 37q111 0 201.5-21t148-51 101.5-77.5 65.5-84.5 36-89.5 17-75.5 5.5-58q1-9 1-12h-185q0 63-21.5 114t-57 84.5-85 56.5-100.5 33.5-108 12.5q-51 0-96-6.5t-90.5-24.5-77.5-46.5-52.5-75.5-20.5-108q0-141 178-180l422-97q332-74 332-389z"/><glyph unicode="T" horiz-adv-x="1256" d="M1230 1299H728V0H526v1299H28v180h1202v-180z"/><glyph unicode="U" horiz-adv-x="1489" d="M1327 486q0-105-35.5-195.5t-106-162T998.5 15 730-28q-282 0-423.5 130.5T161 476v1003h202V514q0-171 95-269t272-98q180 0 285.5 94.5T1126 510v969h201V486z"/><glyph unicode="V" horiz-adv-x="1375" d="M1330 1479L792 0H578L40 1479h233L692 216l436 1263h202z"/><glyph unicode="W" horiz-adv-x="1941" d="M1911 1479L1519 0h-208L974 1225 628 0H417L33 1479h216L521 273l339 1206h216l339-1206 273 1206h223z"/><glyph unicode="X" horiz-adv-x="1375" d="M1332 0h-249L687 607 277 0H38l529 759-498 720h251l375-566 376 566h240L815 756z"/><glyph unicode="Y" horiz-adv-x="1375" d="M1342 1479L785 590V0H585v590L31 1479h242l422-711 424 711h223z"/><glyph unicode="Z" horiz-adv-x="1256" d="M1209 0H47v164l906 1137H114v178h1095v-173L299 180h910V0z"/><glyph unicode="a" horiz-adv-x="1147" d="M787 358v194q-29-19-84-34t-111.5-23.5-117.5-25T366 432t-77.5-62-30.5-97q0-78 52-118.5T450 114q51 0 109 17t109.5 47 85 77.5T787 358zm14-218Q647-26 412-33q-151 0-246 89T71 270q0 60 15.5 109t39.5 82.5 64 60.5 76.5 42.5 91 29.5 93.5 20.5 98 16.5 91 16q82 14 117 50.5t35 79.5q0 83-63.5 133T543 960q-110 0-176.5-53T296 747H128q0 147 111.5 250.5T567 1105q106 0 195.5-32.5T913 966t61-179V211q0-60 22.5-82t96.5 4V0q-57-21-119-21-168 0-173 161z"/><glyph unicode="b" horiz-adv-x="1147" d="M1088 569q3-85-10.5-166.5t-48-161.5-88-140T803 4 612-33Q508-33 424.5 9.5T294 133L280 0H116v1479h185V941q59 78 138.5 119t191.5 45q197 0 323.5-149.5T1088 569zm-190-31q0 198-79 301.5T597 943q-82 0-143.5-38.5t-95-100.5-49-128.5T294 540q0-404 313-414 140 0 215.5 112.5T898 538z"/><glyph unicode="c" horiz-adv-x="1029" d="M991 379q-12-111-57-194T823 56 685-11.5 536-33q-203 0-340 158.5T59 538q0 140 39.5 251t107 179T359 1071.5t184 35.5q62 0 119.5-11.5t114.5-40T877.5 984 952 872t39-156H818q-10 106-83.5 166.5T550 943q-63 0-114.5-21t-94-66T275 730t-24-192q0-170 85-287.5T550 133q109 0 176.5 62T815 379h176z"/><glyph unicode="d" horiz-adv-x="1147" d="M555 943q-143 0-222-103.5T254 538q0-187 75.5-299.5T545 126q313 10 313 414 0 69-15.5 135.5T794 804t-94.5 100.5T555 943zM540-33Q434-33 349 4t-138.5 97-88 140-48 161.5T64 569q7 237 133.5 386.5T521 1105q113-4 191.5-45T851 941v538h185V0H872v152Q824 70 732.5 18.5T540-33z"/><glyph unicode="e" horiz-adv-x="1147" d="M1074 476H270q0-150 91.5-246.5T588 133q68 0 125 22t91 54.5 52.5 66.5 18.5 61h185q-30-172-161-270T578-31q-114 0-209 42.5t-157 116-97 171T78 507q0 270 139.5 436T583 1109q160 0 273.5-81.5t168-223.5 49.5-328zM884 623q0 144-87 234.5T585 948q-128 0-219-95.5T270 623h614z"/><glyph unicode="f" horiz-adv-x="569" d="M538 1493v-149q-31 5-76 5-54 0-76.5-25t-22.5-84v-164h175V913H363V0H178v913H28v163h150v199q0 98 73.5 164t191.5 66q55 0 95-12z"/><glyph unicode="g" horiz-adv-x="1228" d="M905 536q0 180-82.5 283T595 922q-56 0-109-23t-97-67-70.5-116.5T292 552q0-106 26.5-189.5T390 230t99-74.5T602 130q132 0 216 107.5T905 536zm181-489q0-262-128-390.5T600-472q-33 0-66 3t-75 12.5-79.5 24.5-74.5 41.5-63.5 61-43.5 85T180-133h180q0-80 68-125t160-45q150 0 233.5 83T905 33v64Q840 27 759.5-2T576-31q-84 0-166.5 36.5t-151 103-112 171.5T100 510q0 277 139.5 436T602 1105q98 0 180-42t123-110v130h181V47z"/><glyph unicode="h" horiz-adv-x="1147" d="M1012 0H827v704q0 117-50 178t-161 61q-61 0-113.5-21t-96-62.5-68.5-112T313 585V0H128v1479h185V932q55 85 147 128t187 47q55 0 104-10.5t98-38 84-70.5 57-112.5 22-159.5V0z"/><glyph unicode="i" horiz-adv-x="460" d="M318 1271H133v203h185v-203zM318 0H133v1076h185V0z"/><glyph unicode="j" horiz-adv-x="543" d="M405 1271H220v208h185v-208zm0-1456q0-106-70-175t-200-69q-59 0-92 7v157q41-10 83-10 51 0 72.5 29T220-145v1221h185V-185z"/><glyph unicode="k" horiz-adv-x="1029" d="M1029 0H799L443 526 313 398V0H128v1479h185V619l460 457h232L576 664z"/><glyph unicode="l" horiz-adv-x="460" d="M320 0H133v1479h187V0z"/><glyph unicode="m" horiz-adv-x="1711" d="M1586 0h-185v695q0 248-199 248-108 0-177-78t-74-211V0H766v742q0 84-42 142.5T593 943q-53 0-99.5-18.5t-87-58-65-112T315 585V0H130v1076h171V924q57 89 144 135t186 46q113 0 179.5-46T920 932q46 72 131 122.5t198 50.5q42 0 84-8.5t89-33.5 82-63.5 58.5-105T1586 742V0z"/><glyph unicode="n" horiz-adv-x="1147" d="M1012 0H827v673q0 61-10 107.5T784 865t-65.5 58T616 943q-130 0-216.5-88.5T313 614V0H128v1076h175V920q15 24 43.5 52.5t72 60 104 52T647 1105q166 0 265.5-96t99.5-293V0z"/><glyph unicode="o" horiz-adv-x="1147" d="M1081 538q0-112-34.5-213T949 145.5t-159.5-126T576-31Q482-31 401-.5t-140.5 84-102 125-64 155.5T73 538q0 155 58 283t174 207 271 79 271.5-79 175-207 58.5-283zm-190 0q1 68-16.5 136T821 803.5t-100 101T576 946q-80 0-143-39t-98.5-101.5-53.5-131T263 538q0-81 18-152.5T335 255t98-93 143-34q82 0 143.5 34t97 93.5T870 385t21 153z"/><glyph unicode="p" horiz-adv-x="1147" d="M600 133q143 0 222 103.5T901 538q0 187-76 300T609 951q-160-6-236.5-114T296 536q0-69 15.5-135T360 272.5t95-101T600 133zm14 976q106 0 191-37t138.5-97 88.5-140 48-161.5 10-166.5q-7-237-134-386T631-28q-112 3-190 44T303 135v-562H116v1503h166V924q48 82 139.5 133.5T614 1109z"/><glyph unicode="q" horiz-adv-x="1147" d="M45 507q0 85 14 166t48.5 161.5 87 140 136.5 97 190 37.5q103 0 186-42.5T837 943l16 133h166V-427H834v562Q772 57 694 16T505-28q-201 0-328 143.5T45 507zm190 31q0-198 80-301.5T538 133q66 0 119 26t86.5 67 55.5 95.5T830 429t9 107q0 404-313 415-140 0-215.5-113T235 538z"/><glyph unicode="r" horiz-adv-x="683" d="M609 913q-154 0-250-71.5T263 645V0H78v1076h178V894q94 206 353 206V913z"/><glyph unicode="s" horiz-adv-x="1029" d="M960 325q0-155-113.5-256.5T536-33q-97 0-176 20.5T217.5 52 116 170.5 71 346h178q0-220 287-220 101 0 172.5 43T780 294q0 44-23 70t-102 55-247 69q-48 12-81.5 22.5t-78 32.5-72 49-47.5 71.5-20 99.5q0 163 114.5 253.5T517 1107q99 0 175.5-26t118.5-63 69.5-86.5 36-87.5 10.5-76H751q0 88-64 134t-189 46q-15 0-30-1t-42-5.5-49-14.5-44.5-26-35.5-43-15-62q0-66 62.5-95.5T612 622q23-5 35-8 55-15 95.5-30t83.5-39 70-53 45-71.5 19-95.5z"/><glyph unicode="t" horiz-adv-x="569" d="M538 128V-24q-57-12-95-12-118 0-191.5 67T178 194v719H38v163h140v304h185v-304h175V913H363V232q0-59 22.5-85t76.5-26q33 0 76 7z"/><glyph unicode="u" horiz-adv-x="1147" d="M116 1076h187V403q0-61 10-107.5t33-84.5 65.5-58T514 133q129 0 216.5 89T818 462v614h185V0H825v156q-14-24-43-52.5T710 44 606-7.5 481-28q-166 0-265.5 95.5T116 360v716z"/><glyph unicode="v" horiz-adv-x="1029" d="M988 1076L578 0H384L-7 1076h206l294-882 301 882h194z"/><glyph unicode="w" horiz-adv-x="1489" d="M1458 1076L1147 0H958L742 832 526 0H337L28 1076h197l204-848 220 848h202l211-848 216 848h180z"/><glyph unicode="x" horiz-adv-x="1029" d="M1007 0H775L510 405 249 0H21l380 555-361 521h233l248-381 252 381h218L628 552z"/><glyph unicode="y" horiz-adv-x="1029" d="M1007 1076Q841 604 692.5 210.5T510-251q-66-133-149-171.5T126-427v166q35-13 63.5-18.5t60-3 58 22T353-204l74 171L24 1076h204l293-879 292 879h194z"/><glyph unicode="z" horiz-adv-x="1029" d="M965 0H64v140l647 784H114v152h829V927L301 147h664V0z"/></font>
</defs>
</svg>
