<svg width="20" height="20" viewBox="0 0 20 20" xmlns="http://www.w3.org/2000/svg"><title>adjust</title><desc>Created with Sketch.</desc><path d="M19 9.2h-.98c-.553 0-1 .358-1 .8 0 .44.447.8 1 .8H19c.552 0 1-.358 1-.8 0-.44-.45-.8-1-.8zm72 995.3c-3.05 0-5.5 2.45-5.5 5.5s2.45 5.5 5.5 5.5 5.5-2.45 5.5-5.5-2.45-5.5-5.5-5.5zm0 9.5c-2.21 0-4-1.79-4-4s1.79-4 4-4v8zm-7-4c0-.44-.45-.8-1-.8h-1c-.553 0-1 .358-1 .8 0 .44.447.8 1 .8h1c.55 0 1-.36 1-.8zm7-7c.44 0 .8-.447.8-1v-1c0-.553-.36-1-.8-1-.442 0-.8.447-.8 1v1c0 .553.358 1 .8 1zm0 14c-.442 0-.8.447-.8 1v1c0 .553.358 1 .8 1 .44 0 .8-.447.8-1v-1c0-.553-.36-1-.8-1zm7.365-13.234c.39-.39.454-.96.142-1.273-.312-.312-.883-.248-1.272.143l-.7.7c-.39.39-.454.96-.142 1.272.312.312.883.248 1.273-.143.107-.108.59-.592.7-.7zm-14.03 11.767l-.7.7c-.392.392-.455.96-.143 1.272.312.312.883.25 1.272-.14l.7-.7c.39-.39.454-.96.142-1.274-.312-.312-.883-.246-1.272.143zm.43-12.898c-.39-.39-.96-.455-1.273-.143-.312.312-.248.883.14 1.274.11.107.594.592.7.7.392.39.96.454 1.273.142.312-.312.25-.883-.14-1.273l-.7-.7zm11.77 14.03l.7.7c.39.39.96.453 1.27.143.313-.312.25-.883-.14-1.273l-.7-.7c-.39-.39-.96-.454-1.274-.142-.312.312-.247.882.144 1.273z" fill="#BDC3C7"/></svg>