<svg width="29" height="37" viewBox="0 0 29 37" xmlns="http://www.w3.org/2000/svg"><title>monogram</title><desc>Created with Sketch.</desc><g fill="#2B3232"><path d="M10.872 22.968c-.195 0-.393-.056-.566-.175-2.376-1.636-3.794-4.332-3.794-7.213 0-4.825 3.925-8.75 8.75-8.75 3.374 0 6.483 1.973 7.92 5.027.235.5.02 1.096-.48 1.33-.502.237-1.095.022-1.33-.478-1.108-2.357-3.507-3.88-6.11-3.88-3.722 0-6.75 3.027-6.75 6.75 0 2.222 1.094 4.302 2.928 5.565.455.313.57.936.257 1.39-.194.282-.507.433-.825.433"/><path d="M21.012 27.64H10.387c-.406 0-.772-.246-.926-.622-.152-.376-.064-.807.225-1.092l9.633-9.47h-8.806c-.552 0-1-.45-1-1 0-.554.448-1 1-1h11.25c.406 0 .77.244.926.62.153.376.064.807-.225 1.092l-9.633 9.47h8.182c.553 0 1 .45 1 1 0 .554-.447 1-1 1"/><path d="M14.88 36.046h-.07c-3.765-.017-7.297-1.5-9.947-4.175-2.65-2.674-4.098-6.22-4.08-9.985l.036-7.437C.855 6.714 7.177.423 14.91.423c3.834.018 7.366 1.5 10.016 4.175 2.65 2.675 4.098 6.22 4.08 9.986l-.035 7.437c-.037 7.735-6.36 14.026-14.09 14.026zm.09-33.066c-6.695 0-12.12 5.4-12.15 12.036l-.037 7.437c-.015 3.23 1.228 6.274 3.5 8.57 2.275 2.293 5.305 3.566 8.536 3.582l.06 1v-1c6.634 0 12.06-5.4 12.09-12.036l.036-7.438c.016-3.23-1.228-6.273-3.5-8.568C21.23 4.27 18.2 2.996 14.97 2.98z"/></g></svg>