<svg width="35" height="44" viewBox="0 0 35 44" xmlns="http://www.w3.org/2000/svg"><title>monogram</title><desc>Created with Sketch.</desc><path d="M12.358 27.972c-.245 0-.49 0-.734-.123-2.937-2.08-4.65-5.384-4.65-8.932 0-5.873 4.772-10.645 10.767-10.645 4.04 0 7.832 2.447 9.667 6.118.245.612 0 1.346-.612 1.59-.61.368-1.346.124-1.59-.488-1.346-2.937-4.283-4.772-7.464-4.772-4.648 0-8.32 3.67-8.32 8.198 0 2.814 1.347 5.26 3.55 6.85.61.368.734 1.103.366 1.714-.244.367-.61.49-.978.49zm93.357 77.75h-12.97c-.49 0-.978-.244-1.1-.734-.245-.49-.123-.98.244-1.346l11.745-11.623H92.868c-.612 0-1.223-.49-1.223-1.225 0-.61.61-1.223 1.223-1.223h13.826c.49 0 .857.367 1.1.734.124.49.124.98-.243 1.346l-11.868 11.623h10.033c.734 0 1.224.49 1.224 1.224 0 .733-.49 1.222-1.225 1.222zM98.252 116h-.123c-4.65 0-8.932-1.835-12.114-5.14C82.713 107.68 81 103.276 81 98.627v-9.054c.122-9.42 7.83-17.13 17.252-17.13 4.65 0 9.054 1.836 12.235 5.14 3.304 3.18 5.017 7.585 5.017 12.112v9.177c-.123 9.422-7.83 17.13-17.252 17.13zm.122-41.11c-8.198 0-14.805 6.606-14.927 14.682v9.176c0 3.916 1.468 7.586 4.282 10.4s6.484 4.405 10.4 4.405l.122 1.223v-1.223c8.075 0 14.682-6.607 14.804-14.682v-9.176c0-3.915-1.468-7.586-4.282-10.4s-6.485-4.405-10.4-4.405z" fill="#6A7184"/></svg>