<svg width="70" height="70" viewBox="0 0 70 70" xmlns="http://www.w3.org/2000/svg"><title>zoom</title><desc>Created with Sketch.</desc><path d="M43.75 0C29.248 0 17.5 11.748 17.5 26.25c0 5.185 1.458 9.965 4.05 14.016L1.7 60.036c-2.267 2.267-2.267 5.994 0 8.263C2.837 69.432 4.295 70 5.834 70c1.46 0 2.998-.567 4.132-1.7l19.77-19.85c4.05 2.592 8.83 4.05 14.015 4.05C58.252 52.5 70 40.752 70 26.25S58.252 0 43.75 0zm1223.583 761.625h-10.208v10.208h-8.75v-10.208h-10.208v-8.75h10.208v-10.208h8.75v10.208h10.208v8.75z" fill="#393D47"/></svg>